# xmcd CD database file
#
# Track frame offsets:
#	150
#	29550
#	57277
#	75328
#	98477
#	136952
#	152609
#	180284
#	202784
#	236084
#	255209
#	293684
#
# Disc length: 4212 seconds
#
# Revision: 0
# Processed by: cddbd v1.5.2PL0 Copyright (c) Steve Scherf et al.
# Submitted via: CDex 1.75
#
DISCID=8810720c
DTITLE=Steven Halpern - 432 Hz Music for Massage Vol. 2
DYEAR=2019
DGENRE=New Age
TTITLE0=Steven Halpern, David Darling - 432 Hz Healing Touch, Healing Tones
TTITLE1=Steven Halpern - 432 Hz Crystal Tones, Healing Hands 
TTITLE2=Steven Halpern, Georgia Kelly - 432 Hz Hand Dance
TTITLE3=Steven Halpern, Jorge Alfano - 432 Hz At Peace in the Light
TTITLE4=Steven Halpern - 432 Hz Healing Hands
TTITLE5=Steven Halpern, Schawkie Roth - 432 Hz Peace Pipe
TTITLE6=Steven Halpern - 432 Hz  On a Cloud of Sound
TTITLE7=Steven Halpern, Jorge Alfano - 432 Hz Deep Alpha 2.0 (pt. 1) 
TTITLE8=Steven Halpern - 432 Hz Opening to the Resonance 
TTITLE9=Steven Halpern, Schawkie Roth - 432 Hz Floating 
TTITLE10=Steven Halpern - 432 Hz Relaxing in the Present Moment 
TTITLE11=	 - 432 Hz Deep Alpha (pt.14) 
EXTD=YEAR: 2019
EXTT0=
EXTT1=
EXTT2=
EXTT3=
EXTT4=
EXTT5=
EXTT6=
EXTT7=
EXTT8=
EXTT9=
EXTT10=
EXTT11=
PLAYORDER=
